<mxfile host="app.diagrams.net" modified="2023-08-17T13:20:09.767Z" agent="Mozilla/5.0 (Macintosh; Intel Mac OS X 10.15; rv:109.0) Gecko/20100101 Firefox/116.0" etag="qIl0SsZwAZjmF4Rpq-o_" version="21.6.8" type="device">
  <diagram id="INkilVGV8sAitT0r99v4" name="Page-1">
    <mxGraphModel dx="954" dy="630" grid="1" gridSize="10" guides="1" tooltips="1" connect="1" arrows="1" fold="1" page="1" pageScale="1" pageWidth="1169" pageHeight="827" math="0" shadow="0">
      <root>
        <mxCell id="0" />
        <mxCell id="1" parent="0" />
        <mxCell id="8_TIPa9NaeMdRP3Y-Fmn-1" value="&lt;font face=&quot;Comic Sans MS&quot;&gt;Connection Pool&lt;/font&gt;" style="rounded=0;whiteSpace=wrap;html=1;verticalAlign=top;fontSize=17;comic=0;enumerate=0;container=0;sketch=1;curveFitting=1;jiggle=2;" parent="1" vertex="1">
          <mxGeometry x="160" y="100" width="650" height="420" as="geometry" />
        </mxCell>
        <mxCell id="8_TIPa9NaeMdRP3Y-Fmn-47" value="&lt;font style=&quot;font-size: 12px;&quot; color=&quot;#ffb366&quot;&gt;&lt;strong&gt;max_size&lt;/strong&gt; = 8&lt;/font&gt;" style="text;html=1;strokeColor=none;fillColor=none;align=center;verticalAlign=middle;whiteSpace=wrap;rounded=0;comic=0;fontSize=14;fontColor=#D6B656;sketch=1;curveFitting=1;jiggle=2;fontFamily=Comic Sans MS;" parent="1" vertex="1">
          <mxGeometry x="700" y="480" width="100" height="30" as="geometry" />
        </mxCell>
        <mxCell id="8_TIPa9NaeMdRP3Y-Fmn-53" value="" style="group;sketch=1;curveFitting=1;jiggle=2;" parent="1" vertex="1" connectable="0">
          <mxGeometry x="120" y="150" width="660" height="99.99999999999999" as="geometry" />
        </mxCell>
        <mxCell id="8_TIPa9NaeMdRP3Y-Fmn-49" value="" style="group;sketch=1;curveFitting=1;jiggle=2;" parent="8_TIPa9NaeMdRP3Y-Fmn-53" vertex="1" connectable="0">
          <mxGeometry width="660" height="99.99999999999999" as="geometry" />
        </mxCell>
        <mxCell id="8_TIPa9NaeMdRP3Y-Fmn-2" value="" style="rounded=0;whiteSpace=wrap;html=1;fontSize=12;verticalAlign=top;container=0;sketch=1;curveFitting=1;jiggle=2;" parent="8_TIPa9NaeMdRP3Y-Fmn-49" vertex="1">
          <mxGeometry x="200" width="460" height="90" as="geometry" />
        </mxCell>
        <mxCell id="8_TIPa9NaeMdRP3Y-Fmn-7" value="&lt;font face=&quot;Comic Sans MS&quot; style=&quot;font-size: 14px;&quot;&gt;endpoint#1&lt;br&gt;&lt;/font&gt;" style="rounded=0;whiteSpace=wrap;html=1;fontSize=12;verticalAlign=middle;container=0;align=left;spacingLeft=15;sketch=1;curveFitting=1;jiggle=2;fillColor=#7EA6E0;" parent="8_TIPa9NaeMdRP3Y-Fmn-49" vertex="1">
          <mxGeometry x="80" width="120" height="90" as="geometry" />
        </mxCell>
        <mxCell id="8_TIPa9NaeMdRP3Y-Fmn-13" value="conn#1" style="rounded=0;whiteSpace=wrap;html=1;comic=0;fontSize=10;container=0;sketch=1;curveFitting=1;jiggle=2;fontFamily=Comic Sans MS;fillColor=#66CC00;strokeColor=#66CC00;" parent="8_TIPa9NaeMdRP3Y-Fmn-49" vertex="1">
          <mxGeometry x="230" y="20" width="50" height="49.999999999999986" as="geometry" />
        </mxCell>
        <mxCell id="8_TIPa9NaeMdRP3Y-Fmn-19" value="&lt;font style=&quot;font-size: 10px;&quot;&gt;conn#2&lt;/font&gt;" style="rounded=0;whiteSpace=wrap;html=1;comic=0;fontSize=10;container=0;sketch=1;curveFitting=1;jiggle=2;fontFamily=Comic Sans MS;fillColor=#66CC00;strokeColor=#66CC00;" parent="8_TIPa9NaeMdRP3Y-Fmn-53" vertex="1">
          <mxGeometry x="280" y="20" width="50" height="49.999999999999986" as="geometry" />
        </mxCell>
        <mxCell id="8_TIPa9NaeMdRP3Y-Fmn-20" value="&lt;font style=&quot;font-size: 10px;&quot;&gt;conn#3&lt;/font&gt;" style="rounded=0;whiteSpace=wrap;html=1;comic=0;fontSize=10;container=0;sketch=1;curveFitting=1;jiggle=2;fontFamily=Comic Sans MS;fillColor=#66CC00;strokeColor=#66CC00;" parent="8_TIPa9NaeMdRP3Y-Fmn-53" vertex="1">
          <mxGeometry x="330" y="20" width="50" height="49.999999999999986" as="geometry" />
        </mxCell>
        <mxCell id="8_TIPa9NaeMdRP3Y-Fmn-21" value="&lt;font style=&quot;font-size: 10px;&quot;&gt;conn#4&lt;/font&gt;" style="rounded=0;whiteSpace=wrap;html=1;comic=0;fontSize=10;container=0;sketch=1;curveFitting=1;jiggle=2;fontFamily=Comic Sans MS;fillColor=#66CC00;strokeColor=#66CC00;" parent="8_TIPa9NaeMdRP3Y-Fmn-53" vertex="1">
          <mxGeometry x="380" y="20" width="50" height="49.999999999999986" as="geometry" />
        </mxCell>
        <mxCell id="8_TIPa9NaeMdRP3Y-Fmn-33" value="conn#5" style="rounded=0;whiteSpace=wrap;html=1;comic=0;fontSize=10;container=0;sketch=1;curveFitting=1;jiggle=2;fontFamily=Comic Sans MS;fillColor=#FFB366;strokeColor=#FFB366;" parent="8_TIPa9NaeMdRP3Y-Fmn-53" vertex="1">
          <mxGeometry x="430" y="20" width="50" height="49.999999999999986" as="geometry" />
        </mxCell>
        <mxCell id="8_TIPa9NaeMdRP3Y-Fmn-34" value="conn#6" style="rounded=0;whiteSpace=wrap;html=1;comic=0;fontSize=10;container=0;sketch=1;curveFitting=1;jiggle=2;fontFamily=Comic Sans MS;fillColor=#FFB366;strokeColor=#FFB366;" parent="8_TIPa9NaeMdRP3Y-Fmn-53" vertex="1">
          <mxGeometry x="480" y="20" width="50" height="49.999999999999986" as="geometry" />
        </mxCell>
        <mxCell id="8_TIPa9NaeMdRP3Y-Fmn-35" value="conn#7" style="rounded=0;whiteSpace=wrap;html=1;comic=0;fontSize=10;container=0;sketch=1;curveFitting=1;jiggle=2;fontFamily=Comic Sans MS;fillColor=#FFB366;strokeColor=#FFB366;" parent="8_TIPa9NaeMdRP3Y-Fmn-53" vertex="1">
          <mxGeometry x="530" y="20" width="50" height="49.999999999999986" as="geometry" />
        </mxCell>
        <mxCell id="8_TIPa9NaeMdRP3Y-Fmn-38" value="&lt;font style=&quot;font-size: 10px;&quot;&gt;conn#8&lt;/font&gt;" style="rounded=0;whiteSpace=wrap;html=1;comic=0;fontSize=10;container=0;sketch=1;curveFitting=1;jiggle=2;fontFamily=Comic Sans MS;fillColor=#FFB366;strokeColor=#FFB366;" parent="8_TIPa9NaeMdRP3Y-Fmn-53" vertex="1">
          <mxGeometry x="580" y="20" width="50" height="49.999999999999986" as="geometry" />
        </mxCell>
        <mxCell id="8_TIPa9NaeMdRP3Y-Fmn-72" value="" style="group;align=left;sketch=1;curveFitting=1;jiggle=2;" parent="1" vertex="1" connectable="0">
          <mxGeometry x="120" y="260" width="660" height="90" as="geometry" />
        </mxCell>
        <mxCell id="8_TIPa9NaeMdRP3Y-Fmn-73" value="" style="group;sketch=1;curveFitting=1;jiggle=2;" parent="8_TIPa9NaeMdRP3Y-Fmn-72" vertex="1" connectable="0">
          <mxGeometry width="660" height="90" as="geometry" />
        </mxCell>
        <mxCell id="8_TIPa9NaeMdRP3Y-Fmn-74" value="" style="rounded=0;whiteSpace=wrap;html=1;fontSize=12;verticalAlign=top;container=0;sketch=1;curveFitting=1;jiggle=2;" parent="8_TIPa9NaeMdRP3Y-Fmn-73" vertex="1">
          <mxGeometry x="200" width="460" height="90" as="geometry" />
        </mxCell>
        <mxCell id="8_TIPa9NaeMdRP3Y-Fmn-75" value="&lt;font face=&quot;Comic Sans MS&quot; style=&quot;font-size: 14px;&quot;&gt;endpoint#2&lt;/font&gt;" style="rounded=0;whiteSpace=wrap;html=1;fontSize=12;verticalAlign=middle;container=0;spacingLeft=15;align=left;sketch=1;curveFitting=1;jiggle=2;fillColor=#7EA6E0;" parent="8_TIPa9NaeMdRP3Y-Fmn-73" vertex="1">
          <mxGeometry x="80" width="120" height="90" as="geometry" />
        </mxCell>
        <mxCell id="8_TIPa9NaeMdRP3Y-Fmn-77" value="" style="rounded=0;whiteSpace=wrap;html=1;comic=0;fontSize=14;container=0;fillStyle=hatch;strokeWidth=1;fillColor=#e51400;strokeColor=#FF3333;fontColor=#ffffff;perimeterSpacing=0;glass=0;sketch=1;curveFitting=1;jiggle=2;" parent="8_TIPa9NaeMdRP3Y-Fmn-72" vertex="1">
          <mxGeometry x="380" y="20" width="250" height="50" as="geometry" />
        </mxCell>
        <mxCell id="8_TIPa9NaeMdRP3Y-Fmn-78" value="conn#9" style="rounded=0;whiteSpace=wrap;html=1;comic=0;fontSize=10;container=0;sketch=1;curveFitting=1;jiggle=2;fontFamily=Comic Sans MS;fillColor=#66CC00;strokeColor=#66CC00;" parent="8_TIPa9NaeMdRP3Y-Fmn-72" vertex="1">
          <mxGeometry x="230" y="20" width="50" height="49.999999999999986" as="geometry" />
        </mxCell>
        <mxCell id="8_TIPa9NaeMdRP3Y-Fmn-79" value="conn#10" style="rounded=0;whiteSpace=wrap;html=1;comic=0;fontSize=10;container=0;sketch=1;curveFitting=1;jiggle=2;fontFamily=Comic Sans MS;fillColor=#66CC00;strokeColor=#66CC00;" parent="8_TIPa9NaeMdRP3Y-Fmn-72" vertex="1">
          <mxGeometry x="280" y="20" width="50" height="49.999999999999986" as="geometry" />
        </mxCell>
        <mxCell id="8_TIPa9NaeMdRP3Y-Fmn-80" value="conn#11" style="rounded=0;whiteSpace=wrap;html=1;comic=0;fontSize=10;container=0;sketch=1;curveFitting=1;jiggle=2;fontFamily=Comic Sans MS;fillColor=#66CC00;strokeColor=#66CC00;" parent="8_TIPa9NaeMdRP3Y-Fmn-72" vertex="1">
          <mxGeometry x="330" y="20" width="50" height="49.999999999999986" as="geometry" />
        </mxCell>
        <mxCell id="8_TIPa9NaeMdRP3Y-Fmn-115" value="&lt;font style=&quot;font-size: 12px;&quot; color=&quot;#66cc00&quot;&gt;&lt;strong&gt;min_idle = 4&lt;br&gt;&lt;/strong&gt;&lt;/font&gt;" style="text;html=1;strokeColor=none;fillColor=none;align=center;verticalAlign=middle;whiteSpace=wrap;rounded=0;comic=0;fontSize=14;fontColor=#D6B656;sketch=1;curveFitting=1;jiggle=2;fontFamily=Comic Sans MS;" parent="1" vertex="1">
          <mxGeometry x="500" y="480" width="90" height="30" as="geometry" />
        </mxCell>
        <mxCell id="8_TIPa9NaeMdRP3Y-Fmn-118" value="&lt;font style=&quot;font-size: 12px;&quot;&gt;&lt;strong&gt;total_max_size = 16&lt;br&gt;&lt;/strong&gt;&lt;/font&gt;" style="text;html=1;strokeColor=none;fillColor=none;align=center;verticalAlign=middle;whiteSpace=wrap;rounded=0;glass=0;comic=0;sketch=1;fillStyle=hatch;strokeWidth=1;fontFamily=Comic Sans MS;fontSize=14;fontColor=#FF9999;" parent="1" vertex="1">
          <mxGeometry x="200" y="480" width="150" height="30" as="geometry" />
        </mxCell>
        <mxCell id="8_TIPa9NaeMdRP3Y-Fmn-87" value="" style="group;sketch=1;curveFitting=1;jiggle=2;" parent="1" vertex="1" connectable="0">
          <mxGeometry x="120" y="369" width="730" height="90" as="geometry" />
        </mxCell>
        <mxCell id="8_TIPa9NaeMdRP3Y-Fmn-88" value="" style="rounded=0;whiteSpace=wrap;html=1;fontSize=12;verticalAlign=top;container=0;sketch=1;curveFitting=1;jiggle=2;" parent="8_TIPa9NaeMdRP3Y-Fmn-87" vertex="1">
          <mxGeometry x="200" width="460" height="90" as="geometry" />
        </mxCell>
        <mxCell id="8_TIPa9NaeMdRP3Y-Fmn-89" value="&lt;font face=&quot;Comic Sans MS&quot; style=&quot;font-size: 14px;&quot;&gt;endpoint#3&lt;/font&gt;" style="rounded=0;whiteSpace=wrap;html=1;fontSize=12;verticalAlign=middle;container=0;align=left;spacingLeft=15;sketch=1;curveFitting=1;jiggle=2;fillColor=#7EA6E0;" parent="8_TIPa9NaeMdRP3Y-Fmn-87" vertex="1">
          <mxGeometry x="80" width="120" height="90" as="geometry" />
        </mxCell>
        <mxCell id="8_TIPa9NaeMdRP3Y-Fmn-113" value="" style="rounded=0;whiteSpace=wrap;html=1;comic=0;fontSize=14;container=0;fillStyle=hatch;strokeWidth=1;fillColor=#FF0000;strokeColor=#FF3333;fontColor=#ffffff;perimeterSpacing=0;glass=0;sketch=1;curveFitting=1;jiggle=2;" parent="8_TIPa9NaeMdRP3Y-Fmn-87" vertex="1">
          <mxGeometry x="480" y="20" width="150" height="50" as="geometry" />
        </mxCell>
        <mxCell id="8_TIPa9NaeMdRP3Y-Fmn-117" value="" style="endArrow=none;dashed=1;html=1;rounded=0;fontSize=14;strokeWidth=2;strokeColor=#66CC00;sketch=1;curveFitting=1;jiggle=2;fillColor=#cdeb8b;" parent="8_TIPa9NaeMdRP3Y-Fmn-87" source="8_TIPa9NaeMdRP3Y-Fmn-115" edge="1">
          <mxGeometry width="50" height="50" relative="1" as="geometry">
            <mxPoint x="429.5" y="151" as="sourcePoint" />
            <mxPoint x="429.5" y="-239" as="targetPoint" />
          </mxGeometry>
        </mxCell>
        <mxCell id="8_TIPa9NaeMdRP3Y-Fmn-92" value="conn#12" style="rounded=0;whiteSpace=wrap;html=1;comic=0;fontSize=10;container=0;sketch=1;curveFitting=1;jiggle=2;fontFamily=Comic Sans MS;fillColor=#66CC00;strokeColor=#66CC00;" parent="1" vertex="1">
          <mxGeometry x="350" y="389" width="50" height="49.999999999999986" as="geometry" />
        </mxCell>
        <mxCell id="8_TIPa9NaeMdRP3Y-Fmn-93" value="conn#13" style="rounded=0;whiteSpace=wrap;html=1;comic=0;fontSize=10;container=0;sketch=1;curveFitting=1;jiggle=2;fontFamily=Comic Sans MS;fillColor=#66CC00;strokeColor=#66CC00;" parent="1" vertex="1">
          <mxGeometry x="400" y="389" width="50" height="49.999999999999986" as="geometry" />
        </mxCell>
        <mxCell id="8_TIPa9NaeMdRP3Y-Fmn-94" value="conn#14" style="rounded=0;whiteSpace=wrap;html=1;comic=0;fontSize=10;container=0;sketch=1;curveFitting=1;jiggle=2;fontFamily=Comic Sans MS;fillColor=#66CC00;strokeColor=#66CC00;" parent="1" vertex="1">
          <mxGeometry x="450" y="389" width="50" height="49.999999999999986" as="geometry" />
        </mxCell>
        <mxCell id="8_TIPa9NaeMdRP3Y-Fmn-95" value="conn#15" style="rounded=0;whiteSpace=wrap;html=1;comic=0;fontSize=10;container=0;sketch=1;curveFitting=1;jiggle=2;fontFamily=Comic Sans MS;fillColor=#66CC00;strokeColor=#66CC00;" parent="1" vertex="1">
          <mxGeometry x="500" y="389" width="50" height="49.999999999999986" as="geometry" />
        </mxCell>
        <mxCell id="8_TIPa9NaeMdRP3Y-Fmn-96" value="conn#16" style="rounded=0;whiteSpace=wrap;html=1;comic=0;fontSize=10;container=0;sketch=1;curveFitting=1;jiggle=2;fontFamily=Comic Sans MS;fillColor=#FFB366;strokeColor=#FFB366;" parent="1" vertex="1">
          <mxGeometry x="550" y="389" width="50" height="49.999999999999986" as="geometry" />
        </mxCell>
        <mxCell id="8_TIPa9NaeMdRP3Y-Fmn-42" value="" style="endArrow=none;dashed=1;html=1;rounded=0;fontSize=14;strokeWidth=2;strokeColor=#FFB366;sketch=1;curveFitting=1;jiggle=2;" parent="1" source="8_TIPa9NaeMdRP3Y-Fmn-47" edge="1">
          <mxGeometry width="50" height="50" relative="1" as="geometry">
            <mxPoint x="750.5" y="470" as="sourcePoint" />
            <mxPoint x="750" y="130" as="targetPoint" />
          </mxGeometry>
        </mxCell>
        <mxCell id="8_TIPa9NaeMdRP3Y-Fmn-124" value="" style="rounded=0;whiteSpace=wrap;html=1;comic=0;fontSize=10;container=0;sketch=1;curveFitting=1;jiggle=2;fontFamily=Comic Sans MS;fillColor=#66CC00;strokeColor=#66CC00;" parent="1" vertex="1">
          <mxGeometry x="175" y="550" width="30" height="30" as="geometry" />
        </mxCell>
        <mxCell id="8_TIPa9NaeMdRP3Y-Fmn-125" value="" style="rounded=0;whiteSpace=wrap;html=1;comic=0;fontSize=10;container=0;sketch=1;curveFitting=1;jiggle=2;fontFamily=Comic Sans MS;fillColor=#FFB366;strokeColor=#FFB366;" parent="1" vertex="1">
          <mxGeometry x="175" y="600" width="30" height="30" as="geometry" />
        </mxCell>
        <mxCell id="8_TIPa9NaeMdRP3Y-Fmn-127" value="" style="rounded=0;whiteSpace=wrap;html=1;comic=0;fontSize=14;container=0;fillStyle=hatch;strokeWidth=1;fillColor=#FF0000;strokeColor=#FF3333;fontColor=#ffffff;perimeterSpacing=0;glass=0;sketch=1;curveFitting=1;jiggle=2;" parent="1" vertex="1">
          <mxGeometry x="175" y="650" width="30" height="30" as="geometry" />
        </mxCell>
        <mxCell id="8_TIPa9NaeMdRP3Y-Fmn-131" value="&lt;font style=&quot;font-size: 14px;&quot;&gt;- persistent connection (kept open until &lt;strong&gt;&lt;u&gt;max_lifetime&lt;/u&gt; &lt;/strong&gt;expires)&lt;/font&gt;" style="text;html=1;strokeColor=none;fillColor=none;align=left;verticalAlign=middle;whiteSpace=wrap;rounded=0;glass=0;comic=0;sketch=1;fillStyle=hatch;strokeWidth=2;fontFamily=Comic Sans MS;fontSize=12;fontColor=#000000;" parent="1" vertex="1">
          <mxGeometry x="225" y="550" width="570" height="30" as="geometry" />
        </mxCell>
        <mxCell id="8_TIPa9NaeMdRP3Y-Fmn-132" value="&lt;font style=&quot;font-size: 14px;&quot;&gt;- extra connection (will be automatically closed after&amp;nbsp;&lt;b&gt;&lt;u&gt;idle_timeout&lt;/u&gt;&lt;/b&gt; of inactivity&lt;/font&gt;&lt;font style=&quot;font-size: 14px;&quot;&gt; )&lt;br&gt;&lt;/font&gt;" style="text;html=1;strokeColor=none;fillColor=none;align=left;verticalAlign=middle;whiteSpace=wrap;rounded=0;glass=0;comic=0;sketch=1;fillStyle=hatch;strokeWidth=2;fontFamily=Comic Sans MS;fontSize=12;fontColor=#000000;" parent="1" vertex="1">
          <mxGeometry x="225" y="600" width="570" height="30" as="geometry" />
        </mxCell>
        <mxCell id="8_TIPa9NaeMdRP3Y-Fmn-133" value="&lt;font style=&quot;font-size: 14px;&quot;&gt;- not available (as long as the number of connections equals to &lt;b&gt;&lt;u&gt;total_max_size&lt;/u&gt;&lt;/b&gt;)&lt;br&gt;&lt;/font&gt;" style="text;html=1;strokeColor=none;fillColor=none;align=left;verticalAlign=middle;whiteSpace=wrap;rounded=0;glass=0;comic=0;sketch=1;fillStyle=hatch;strokeWidth=2;fontFamily=Comic Sans MS;fontSize=12;fontColor=#000000;" parent="1" vertex="1">
          <mxGeometry x="225" y="650" width="570" height="30" as="geometry" />
        </mxCell>
      </root>
    </mxGraphModel>
  </diagram>
</mxfile>
